<?xml version="1.0" encoding="UTF-8"?>
<svg version="1.1" xmlns="http://www.w3.org/2000/svg" width="271" height="53">
<path d="M0 0 C1.07765625 0.11988281 2.1553125 0.23976563 3.265625 0.36328125 C4.08546875 0.47027344 4.9053125 0.57726562 5.75 0.6875 C5.83704 5.27071382 5.89040632 9.85371534 5.9375 14.4375 C5.96263672 15.73945312 5.98777344 17.04140625 6.01367188 18.3828125 C6.02333984 19.63320313 6.03300781 20.88359375 6.04296875 22.171875 C6.0586792 23.32397461 6.07438965 24.47607422 6.09057617 25.66308594 C5.71448626 29.00287218 5.11613664 30.34108981 2.75 32.6875 C-1.14164348 33.98471449 -4.14429226 33.81783993 -8.25 33.6875 C-8.91 33.3575 -9.57 33.0275 -10.25 32.6875 C-10.25 31.0375 -10.25 29.3875 -10.25 27.6875 C-6.95 27.6875 -3.65 27.6875 -0.25 27.6875 C0.08 26.6975 0.41 25.7075 0.75 24.6875 C0.09 25.0175 -0.57 25.3475 -1.25 25.6875 C-4.4306455 25.96407787 -6.5912952 25.99855504 -9.5 24.625 C-12.75591249 21.02023974 -13.14966808 16.83128389 -13.5625 12.125 C-13.14244435 7.50438787 -11.86325857 4.27509309 -8.53125 0.99609375 C-5.45035967 -0.77119779 -3.49136994 -0.41744641 0 0 Z M-7.125 6.1875 C-8.7971417 9.90337044 -8.57319087 12.61529509 -8.25 16.6875 C-7.26 18.1725 -7.26 18.1725 -6.25 19.6875 C-2.87537285 19.14026317 -1.16765 18.6326 1.75 16.6875 C2.15271513 14.05667808 2.15271513 14.05667808 2 11.125 C1.98453125 10.13371094 1.9690625 9.14242188 1.953125 8.12109375 C2.01819387 5.74041359 2.01819387 5.74041359 0.75 4.6875 C-3.5109864 4.19519516 -3.5109864 4.19519516 -7.125 6.1875 Z " fill="#FFFFFF" transform="translate(64.25,17.3125)"/>
<path d="M0 0 C1.09570312 0.10183594 2.19140625 0.20367188 3.3203125 0.30859375 C4.16335937 0.39238281 5.00640625 0.47617187 5.875 0.5625 C5.96204 5.14571382 6.01540632 9.72871534 6.0625 14.3125 C6.08763672 15.61445312 6.11277344 16.91640625 6.13867188 18.2578125 C6.14833984 19.50820313 6.15800781 20.75859375 6.16796875 22.046875 C6.1836792 23.19897461 6.19938965 24.35107422 6.21557617 25.53808594 C5.84154825 28.85956109 5.18148104 30.19336771 2.875 32.5625 C-0.27602607 33.91014958 -2.61109023 33.44097744 -5.875 32.625 C-7.07382813 32.33302734 -7.07382813 32.33302734 -8.296875 32.03515625 C-9.20179688 31.80119141 -9.20179688 31.80119141 -10.125 31.5625 C-10.125 29.9125 -10.125 28.2625 -10.125 26.5625 C-6.825 26.5625 -3.525 26.5625 -0.125 26.5625 C0.205 25.5725 0.535 24.5825 0.875 23.5625 C0.215 23.8925 -0.445 24.2225 -1.125 24.5625 C-4.3056455 24.83907787 -6.4662952 24.87355504 -9.375 23.5 C-12.35462569 20.2011287 -13.09237797 16.67930746 -13.16015625 12.28125 C-12.81561206 7.23913988 -11.87238885 4.19633161 -8.125 0.5625 C-5.28943413 -0.85528293 -3.1341294 -0.30007622 0 0 Z M-7 6.125 C-8.52843025 9.43659887 -8.45283949 11.95626565 -8.125 15.5625 C-7.135 17.0475 -7.135 17.0475 -6.125 18.5625 C-1.78315798 18.37785634 -1.78315798 18.37785634 1.875 16.5625 C1.97351171 14.73134117 2.00472629 12.89630067 2 11.0625 C2.00257813 10.0621875 2.00515625 9.061875 2.0078125 8.03125 C2.15370382 5.61850378 2.15370382 5.61850378 0.875 4.5625 C-3.41023414 4.05876914 -3.41023414 4.05876914 -7 6.125 Z " fill="#FFFFFF" transform="translate(201.125,17.4375)"/>
<path d="M0 0 C6.27 0 12.54 0 19 0 C19 1.65 19 3.3 19 5 C14.05 5 9.1 5 4 5 C4 6.98 4 8.96 4 11 C8.95 11 13.9 11 19 11 C19 12.65 19 14.3 19 16 C14.05 16 9.1 16 4 16 C4 18.97 4 21.94 4 25 C8.95 25 13.9 25 19 25 C19 26.98 19 28.96 19 31 C12.73 31 6.46 31 0 31 C0 20.77 0 10.54 0 0 Z " fill="#FFFFFF" transform="translate(142,11)"/>
<path d="M0 0 C2.9375 1.875 2.9375 1.875 5 5 C5.41061871 8.44814431 5.23294929 11.50576063 5 15 C0.38 15.33 -4.24 15.66 -9 16 C-6.36214862 19.26440829 -6.36214862 19.26440829 -3.125 19.3125 C-0.03996921 19.00399692 2.2090109 18.31340664 5 17 C5 19.31 5 21.62 5 24 C0.74478738 26.65950789 -4.41734545 27.55841179 -9.3125 26.5 C-12.68384031 23.50325306 -13.78182436 19.86628623 -14.2890625 15.52734375 C-14.46199402 10.31581648 -14.07811341 6.39730487 -11 2 C-7.65274701 -0.62998449 -4.11567533 -0.50543381 0 0 Z M-9 7 C-9 7.99 -9 8.98 -9 10 C-5.7 9.67 -2.4 9.34 1 9 C0.34 7.68 -0.32 6.36 -1 5 C-4.71599191 4.79913557 -5.77208445 4.8480563 -9 7 Z " fill="#FFFFFF" transform="translate(43,17)"/>
<path d="M0 0 C2.9375 1.8125 2.9375 1.8125 5 5 C5.41316745 8.77147724 5.22981277 12.18510802 5 16 C-1.93 15.505 -1.93 15.505 -9 15 C-8.34 16.65 -7.68 18.3 -7 20 C-6.34 20 -5.68 20 -5 20 C-5 20.66 -5 21.32 -5 22 C-3.02 22 -1.04 22 1 22 C1 21.34 1 20.68 1 20 C2.32 19.34 3.64 18.68 5 18 C5 20.31 5 22.62 5 25 C1.34387956 27.33991708 -1.73207376 27.37437949 -6 27 C-8.8841499 25.95121822 -10.3838936 24.99579989 -12.0078125 22.37109375 C-14.44314567 16.94095897 -14.47658269 11.72914085 -13 6 C-9.42366158 0.34707798 -6.64006018 -0.67526036 0 0 Z M-6 5 C-7.485 7.475 -7.485 7.475 -9 10 C-5.7 10 -2.4 10 1 10 C0.34 8.68 -0.32 7.36 -1 6 C-3.55519921 5.18828772 -3.55519921 5.18828772 -6 5 Z " fill="#FFFFFF" transform="translate(260,17)"/>
<path d="M0 0 C0.77085938 -0.01417969 1.54171875 -0.02835938 2.3359375 -0.04296875 C4.8827759 0.21345355 6.46451509 0.83124846 8.625 2.1875 C9.8513757 4.64025141 9.73915314 6.2380781 9.72265625 8.9765625 C9.71943359 9.91757812 9.71621094 10.85859375 9.71289062 11.828125 C9.70451172 12.81296875 9.69613281 13.7978125 9.6875 14.8125 C9.68298828 15.80507813 9.67847656 16.79765625 9.67382812 17.8203125 C9.66202145 20.2761016 9.645554 22.73177104 9.625 25.1875 C8.45916382 24.93081543 8.45916382 24.93081543 7.26977539 24.66894531 C4.52558087 24.1694021 2.76977088 24.39133753 0.0625 24.9375 C-2.28125 25.234375 -2.28125 25.234375 -4.375 25.1875 C-7.76687979 22.54017919 -8.28023737 20.86268372 -8.875 16.625 C-8.375 13.1875 -8.375 13.1875 -6.9375 10.875 C-3.31744288 8.49105995 0.38932354 7.8753449 4.625 7.1875 C3.59093327 5.92800951 3.59093327 5.92800951 1.33984375 6.08984375 C0.42332031 6.10144531 -0.49320312 6.11304688 -1.4375 6.125 C-2.35660156 6.13402344 -3.27570313 6.14304687 -4.22265625 6.15234375 C-4.93292969 6.16394531 -5.64320312 6.17554688 -6.375 6.1875 C-6.375 4.5375 -6.375 2.8875 -6.375 1.1875 C-4.04904054 0.02452027 -2.58776769 0.02149309 0 0 Z M-3.375 15.1875 C-3.045 16.5075 -2.715 17.8275 -2.375 19.1875 C1.09 18.6925 1.09 18.6925 4.625 18.1875 C4.955 16.5375 5.285 14.8875 5.625 13.1875 C1.99971432 12.98609524 -0.24001708 13.32973235 -3.375 15.1875 Z " fill="#FFFFFF" transform="translate(83.375,16.8125)"/>
<path d="M0 0 C3.8840864 4.46849754 3.34995054 9.22670074 3.1875 14.8125 C3.16719727 16.13797852 3.16719727 16.13797852 3.14648438 17.49023438 C3.11129217 19.66042023 3.05748985 21.83029033 3 24 C1.35 24 -0.3 24 -2 24 C-2.33 17.73 -2.66 11.46 -3 5 C-5.31 5.33 -7.62 5.66 -10 6 C-10.33 11.94 -10.66 17.88 -11 24 C-12.32 24 -13.64 24 -15 24 C-15 16.08 -15 8.16 -15 0 C-4.69325153 -1.28834356 -4.69325153 -1.28834356 0 0 Z " fill="#FFFFFF" transform="translate(181,18)"/>
<path d="M0 0 C2.66633301 2.22194417 3.87184616 4.00272295 4.31787109 7.47363281 C4.39394209 10.42968006 4.34832139 13.35718586 4.25 16.3125 C4.23195312 17.33923828 4.21390625 18.36597656 4.1953125 19.42382812 C4.14831063 21.95017885 4.08262272 24.47460469 4 27 C2.68 27 1.36 27 0 27 C-0.06058594 25.81921875 -0.12117187 24.6384375 -0.18359375 23.421875 C-0.26802582 21.8645723 -0.35267249 20.30728121 -0.4375 18.75 C-0.47681641 17.97269531 -0.51613281 17.19539063 -0.55664062 16.39453125 C-0.61948242 15.26337891 -0.61948242 15.26337891 -0.68359375 14.109375 C-0.72025146 13.41811523 -0.75690918 12.72685547 -0.79467773 12.01464844 C-1.00675524 9.93371671 -1.44508677 8.01427578 -2 6 C-4.31 6.33 -6.62 6.66 -9 7 C-9.33 13.27 -9.66 19.54 -10 26 C-11.32 26 -12.64 26 -14 26 C-14 17.75 -14 9.5 -14 1 C-12.02 1 -10.04 1 -8 1 C-5.12529507 -0.43735246 -3.18105412 -0.38172649 0 0 Z " fill="#FFFFFF" transform="translate(238,17)"/>
<path d="M0 0 C2.32421875 0.12109375 2.32421875 0.12109375 5 1 C7.22295568 4.82567927 8.46331732 8.82900416 10 13 C11.98 8.71 13.96 4.42 16 0 C17.65 0 19.3 0 21 0 C20.62488281 0.99257813 20.24976563 1.98515625 19.86328125 3.0078125 C19.61827881 3.65862793 19.37327637 4.30944336 19.12084961 4.97998047 C18.57821295 6.41990971 18.03342364 7.85902941 17.48657227 9.29736328 C16.1331171 12.87950533 14.82875802 16.46105934 13.6640625 20.109375 C13.25929687 21.35203125 12.85453125 22.5946875 12.4375 23.875 C12.08558594 25.00679687 11.73367187 26.13859375 11.37109375 27.3046875 C10 30 10 30 7.34765625 31.3828125 C6.57292969 31.58648437 5.79820313 31.79015625 5 32 C4.67 31.01 4.34 30.02 4 29 C4.309375 28.4225 4.61875 27.845 4.9375 27.25 C6.46583935 24.01351668 6.23750936 21.56264033 6 18 C4.7342909 14.3529125 4.7342909 14.3529125 3 10.8125 C0 4.40277778 0 4.40277778 0 0 Z " fill="#FFFFFF" transform="translate(117,18)"/>
<path d="M0 0 C1.65 0 3.3 0 5 0 C5 9.24 5 18.48 5 28 C8.96 28 12.92 28 17 28 C17 27.34 17 26.68 17 26 C17.66 26 18.32 26 19 26 C19 28.31 19 30.62 19 33 C9.595 33.495 9.595 33.495 0 34 C0 22.78 0 11.56 0 0 Z " fill="#FFFFFF" transform="translate(9,11)"/>
<path d="M0 0 C0.99 0.66 1.98 1.32 3 2 C3.1875 5.125 3.1875 5.125 3 8 C2.484375 7.67 1.96875 7.34 1.4375 7 C-1.78026512 5.67989123 -4.5570528 5.86757895 -8 6 C-9.0812391 12.06050614 -9.0812391 12.06050614 -8 18 C-2.2025577 18.24428343 -2.2025577 18.24428343 3 16 C3.1875 19.375 3.1875 19.375 3 23 C-0.72579089 25.48386059 -2.58711402 25.3804212 -7 25 C-10.05116403 23.71173074 -11.53585246 22.7293747 -13.3125 19.9375 C-14.58113963 14.51694887 -14.91325792 9.19181901 -12.75 4 C-8.99570967 -0.29061752 -5.59803926 -0.40713013 0 0 Z " fill="#FFFFFF" transform="translate(112,17)"/>
<path d="M0 0 C1.65 0 3.3 0 5 0 C5 8.25 5 16.5 5 25 C3.35 25 1.7 25 0 25 C0 16.75 0 8.5 0 0 Z " fill="#FFFFFF" transform="translate(213,18)"/>
<path d="M0 0 C1.65 0 3.3 0 5 0 C5 1.98 5 3.96 5 6 C3.35 6 1.7 6 0 6 C0 4.02 0 2.04 0 0 Z " fill="#FFFFFF" transform="translate(213,11)"/>
</svg>
